<?xml version="1.0" encoding="UTF-8"?>
<svg id="Layer_1" data-name="Layer 1" xmlns="http://www.w3.org/2000/svg" viewBox="0 0 530.84 198.04">
  <defs>
    <style>
      .cls-1 {
        stroke: #fff;
      }

      .cls-1, .cls-2 {
        fill: none;
        stroke-miterlimit: 10;
        stroke-width: 5px;
      }

      .cls-3 {
        fill: #ea1515;
      }

      .cls-4 {
        fill: #fff;
      }

      .cls-2 {
        stroke: #000;
      }
    </style>
  </defs>
  <g>
    <rect width="265.42" height="198.04"/>
    <rect class="cls-4" x="265.42" width="265.42" height="198.04"/>
    <polyline class="cls-1" points="265.42 179.56 21.94 179.56 21.94 18.48 265.42 18.48"/>
    <polyline class="cls-2" points="265.42 18.48 508.9 18.48 508.9 179.56 265.42 179.56"/>
  </g>
  <g>
    <path class="cls-3" d="M56.87,136.13c9.18-15.25,17.32-33.6,21.91-46.92-6.96-15.25-15.25-23.24-21.91-27.09-6.66-4-10.21,1.92-15.54,7.7-2.52,2.81-5.77,2.22-4.14-1.04,3.55-7.1,11.4-19.54,18.65-19.24,5.62.15,14.06,5.77,27.38,26.2,2.22-5.03,4.14-11.99,4.14-17.02s.74-5.03,6.22-.74c.74.59,1.04,1.92,1.04,3.85-.3,5.77-4.59,16.13-6.66,21.91,8.14,15.84,14.5,30.34,19.24,45.14,11.69-19.39,25.9-42.78,45.88-66.16,3.55-7.99,3.7-7.55,6.22-11.4,2.96-4.59,7.1-2.66,15.84,4.44,1.33,1.04.3,2.96-2.81,2.37-2.96-.44-5.03-.44-8.58,6.51-9.92,19.09-16.13,46.62-18.35,67.94,1.78-3.4,3.4-6.07,4.44-8.29,1.48-2.81,4.44-1.63,2.81,2.22-1.63,3.85-5.03,14.06-5.77,20.72-.59,4.59-2.81,6.07-10.36.3-3.26-2.37-3.26-2.96-2.66-7.1,2.96-17.76,10.51-55.95,13.62-61.87-10.21,12.14-26.94,38.48-37.59,58.76,2.81,8.58,1.48,9.47-3.26,13.91-4,3.7-3.55,3.26-7.55-3.4-2.52-4.14-1.63-4.74.59-8.88-5.03-18.5-16.87-41.89-16.87-41.89-6.66,16.87-11.69,27.53-15.84,35.82,7.4,8.29,6.07,9.47,1.63,9.92-4.44.59-8.58,2.22-12.73,7.84-.59,3.11-3.26,3.4-9.77-2.22-1.92-1.63-2.22-2.52-.3-4.14,4.29-3.7,7.84-6.07,11.1-8.14Z"/>
    <path class="cls-3" d="M252.24,54.73c-3.11,4.44-6.22,18.95-8.44,34.49-2.07,14.8-3.4,30.34-3.26,38.63.3,16.58,4.44,14.06,7.55,13.02,2.96-1.18,3.85.74,1.92,2.52-1.92,1.63-7.55,5.33-11.1,7.1-3.26,1.78-6.07,1.63-7.55-4.88-1.18-5.18-1.48-14.36-.59-30.05-10.21.59-27.68,2.22-32.71,2.81-4.74,5.77-10.8,13.32-14.36,17.46,2.96-.3,5.77-2.22,8.29,6.66,1.33,5.03-.59,4.74-3.4,3.85-2.66-.74-8.58,0-18.5,6.36-3.11,1.92-2.52,2.81-5.33.89-2.81-1.92-3.85-3.55-4.74-5.62-.74-1.92-.15-2.66,2.52-4.44,6.07-3.85,19.39-15.69,22.5-19.68-.59-5.92-1.33-9.33.89-11.25,1.48-1.48,4.74-2.07,10.8-2.37,9.47-11.54,22.94-31.38,28.86-42.63-6.22,3.26-16.73,5.77-33.01,11.54-6.96,2.52-8.58,6.66-7.55,13.02.59,3.4-2.52,3.11-3.26,1.48-3.4-6.96-4.29-9.47-4.74-11.69-.3-1.18-1.78-4,.89-6.96,2.07-2.37,6.96-4.74,17.32-6.36,9.47-1.33,24.42-5.48,31.38-8.58,1.92-1.92,1.92-1.63,2.52-3.85.59-2.22,2.66-1.92,6.36,2.22,2.52,2.66.15,4.74-1.33,7.4-6.36,11.1-21.91,35.23-29.75,44.25,6.96,0,23.68-.59,26.94-.89,1.63-16.43,7.4-44.7,7.84-47.21.74-6.07,6.07-9.62,10.51-11.4,4-1.48,5.18.3,2.52,4.14Z"/>
  </g>
  <g>
    <g>
      <path d="M282,143.39c0-4.29,1.18-10.95,1.92-14.5.89-3.55,2.22-2.37,6.51,1.18,5.48-18.65,17.17-53.28,18.65-57.28-7.55,4.74-17.91,12.14-24.87,19.54-4.29,4.74-.74,10.8,1.04,13.76,1.63,3.11-2.22,3.11-3.4,1.78-9.03-10.66-13.32-15.1-3.26-24.13,7.55-6.96,22.79-17.17,35.37-24.42,4.74-10.95,4.88-10.8,10.95-5.03,11.54-5.03,12.73-7.84,22.65-1.18,1.18-1.18,6.51,1.04,13.32,7.25,4.29,3.85,4.88,6.96,4.29,11.54-4.88,35.38-31.97,79.04-43.51,79.19-5.77,0-13.03-4-20.43-8.88-2.66-1.92.59-5.18,3.11-3.55,2.52,1.48,7.25,3.4,11.99,3.7,12.28.59,36.41-46.62,39.37-74,.59-5.77-4.14-8.73-7.25-9.92-1.33-.59-2.37-.74-3.26-.59-11.84,1.63-19.83,5.62-26.94,10.06-8.44,20.13-19.98,55.36-24.72,80.07-.74,3.85-2.81,4.29-5.03,3.11-4.59-2.22-6.51-3.55-6.51-7.7Z"/>
      <path d="M385.75,136.43c4.14-7.7,9.18-19.39,11.69-27.68-1.63-4.59-3.85-7.55-3.26-9.77.44-1.63,2.52-2.81,7.84-3.85,2.22-9.18,6.66-25.46,8.29-32.56-6.81-1.18-13.47-2.52-22.05-1.33-8.14,1.18-9.47,8.44-6.36,21.17.89,3.26-2.22,3.7-3.11,1.04-3.11-10.36-4.14-18.21-1.63-26.05,2.22-6.96,8.58-8.88,35.52-3.7,3.26-2.37,7.84-5.18,5.62,1.18,8.29,2.37,21.31,5.03,28.57,6.66,2.52.59,4-.44,5.18-2.52,1.04-1.48,3.11-1.92,3.7,1.18,1.33,7.1.44,6.66-3.11,9.32-2.52,1.92-3.55,1.33-6.37.59-12.28-3.11-20.57-4.59-30.49-6.22-2.81,11.4-5.92,24.27-7.25,30.05,12.73-1.04,15.99-1.33,27.23-1.63,6.37-.15,6.07,4.74,6.66,7.55.59,2.66-.89,3.55-5.62,4.44-4.74.74-5.77,1.04-6.96-.89-1.04-1.92-1.33-1.92-3.85-1.92s-12.43-.59-19.69.59c-2.52,7.99-4.29,13.76-5.77,18.06-3.4,9.92-5.03,12.14-10.66,15.98,13.03-.59,32.56,1.33,45,2.37,4,.44,1.78-4.59,4.14-4.74,1.18-.15,1.92-.3,2.52,1.63,1.18,3.85,1.48,6.07,1.92,8.29.59,2.22-2.52,3.85-4.44,5.48-1.92,1.78-2.52,1.18-6.66,0-13.47-3.55-28.86-5.18-51.8-3.55-4.74,4.14-8.44,7.55-9.18,3.4-2.22-10.8-4.14-11.69,14.36-12.58Z"/>
    </g>
    <g>
      <path d="M406,160.12c.18-.23.77.09,1.52.57.39.27.34,1.28.25,1.94-.3,2.64-2.43,9.29-4.55,9.33-.64,0-1.37-.37-2.1-.93-.23-.18,0-.62.32-.46.36.18.84.39,1.29.39,1.6.05,3.87-6.08,3.98-9.45.04-.84-.61-.93-1.16-.84-.8.11-2.32,1.57-2.89,3.58-.2.75.27,1.04.57,1.34.29.3-.16.41-.34.3-1.37-.8-1.68-1.18-1.05-2.62.62-1.45,2.02-2.94,2.89-3.32.3-.12.7-.02,1.28.16Z"/>
      <path d="M408.35,171c0-.3.39-.68,1.37-1.27,1.11-1.98,2.76-6.58,2.98-7.3-.41-.66-.95-1.16-1.25-1.34-.3-.16-.61-.29-1.43.34-.41.3-.75,0-.34-.39.98-.95,1.5-1.5,2.02-1.45.39.05.8.45,1.39,1.27.11-.27.16-.5.11-.7-.07-.2.07-.34.59.09.41.34,0,1.05-.12,1.48,1.68,2.34,3.51,5.81,4.01,7.22.3-2,1.36-6.05,1.48-6.53-.29-.18-.41-.3-.55-.43-.2-.21-.23-.43.14-.39.39.02,1.23-1.14,1.5-1.48s.48-.59,1.11.12c.21.25.12.52-.07.8-.25.37-.68.75-.96,1.09-.8,2.27-2,6.44-2.03,8.28.2.54.32.77-.5,1.32-.41.27-.57-.21-.68-.27-.11-.07-.07-.38,0-.75-1.14-3-3.32-6.81-3.85-7.49-.59,1.87-2.11,5.57-2.3,6.1.2-.07.54.5.73.89.21.41-.36.3-.62.3s-.71.18-.91.37c-.2.2-.2,1.11-.93.8-.54-.21-.89-.43-.88-.71Z"/>
      <path d="M421.41,162.78c-.07-.84.96-1.36,1.75-1.57,1.7-.46,3.64-.77,4.85-.87.27-.54.27-.89,1.09-.12.54,0,1.07-.12,1.41-.18.61-.09.07-.54,1.34-.59.61-.04.61.46.73,1,.14.53-.46.5-.89.57-.45.05-2.75.32-3.17.36-.98,2.11-2.51,7.37-3.05,9.81-.16.75-.23.79-1.18.46-.3-.11-.2-.27-.2-.77,0-.57.18-1.75.41-2.34.23-.61.39-.34.8-.3.39-1.52,1.84-5.58,2.19-6.76-1.62.12-3.98.61-4.64,1.2-.68.61-.73,1.03.05,2.48.21.37-.16.61-.39.27-1-1.43-1.04-1.8-1.11-2.64Z"/>
      <path d="M433.2,169.99c.5-.93,1.11-2.34,1.41-3.34-.2-.55-.46-.91-.39-1.18.05-.2.3-.34.95-.46.27-1.11.8-3.07,1-3.92-.82-.14-1.62-.3-2.66-.16-.98.14-1.14,1.02-.77,2.55.11.39-.27.45-.38.12-.37-1.25-.5-2.19-.2-3.14.27-.84,1.03-1.07,4.28-.45.39-.29.95-.62.68.14,1,.29,2.57.61,3.44.8.3.07.48-.05.62-.3.12-.18.38-.23.45.14.16.86.05.8-.38,1.12-.3.23-.43.16-.77.07-1.48-.38-2.48-.55-3.67-.75-.34,1.37-.71,2.93-.87,3.62,1.53-.12,1.93-.16,3.28-.2.77-.02.73.57.8.91.07.32-.11.43-.68.54-.57.09-.7.12-.84-.11-.12-.23-.16-.23-.46-.23s-1.5-.07-2.37.07c-.3.96-.52,1.66-.7,2.18-.41,1.2-.61,1.46-1.29,1.93,1.57-.07,3.92.16,5.42.29.48.05.21-.55.5-.57.14-.02.23-.04.3.2.14.46.18.73.23,1,.07.27-.3.46-.54.66-.23.21-.3.14-.8,0-1.62-.43-3.48-.62-6.24-.43-.57.5-1.02.91-1.11.41-.27-1.3-.5-1.41,1.73-1.52Z"/>
      <path d="M443.48,170.65c.36-.91.45-1,.48-1.36.02-.37-.04-.55.16-.61.16-.04.23.14.5.55.54-1.14,1.07-2.55,1.48-3.69-.68-1.03-.68-1.07.36-1.16.23-.68.59-1.91.8-2.71-1.52.57-2.89,1.12-3.82,2.3-.5.64-.18,1.39.07,2.1.09.3-.25.39-.45.11-.3-.46-.59-1-.8-1.53-.2-.54-.48-.89.41-1.71,1.37-1.27,3.25-2.07,4.78-2.53.14-.25.11-1.05.34-1.02.11.02.27.21.54.71,1.2-.29,1.96-.48,2.5-.45.61.04.91.36,1.21,1.11.62.45.93.71.93,1.52,0,1.25-2.07,3.94-3.26,3.94-.75,0-1.11-.38-1.52-.64-.3-.2.02-.48.27-.39.5.18,1.21.43,2.55-1.27,1.43-1.84,1.3-3.09-.41-3.09-.84,0-1.8.25-2.57.55-.23,1-.77,2.8-.98,3.42,2.14,3.21,5.9,7.51,7.1,7.6.5.04.59-.16.73-.27.3-.25.61-.12.37.3-.45.77-.87,1.36-1.39,1.39-.25.02-.55-.11-.91-.43-2.68-2.3-5.48-5.96-6.33-7.15-.43,1.5-1.62,4.42-2.03,5.24-.21.41-.37.48-.64.27-.52-.37-.71-.52-.46-1.12Z"/>
      <path d="M459.33,160.12c.18-.23.77.09,1.52.57.39.27.34,1.28.25,1.94-.3,2.64-2.43,9.29-4.55,9.33-.64,0-1.37-.37-2.1-.93-.23-.18,0-.62.32-.46.36.18.84.39,1.29.39,1.6.05,3.87-6.08,3.98-9.45.04-.84-.61-.93-1.16-.84-.8.11-2.32,1.57-2.89,3.58-.2.75.27,1.04.57,1.34.29.3-.16.41-.34.3-1.37-.8-1.68-1.18-1.05-2.62.62-1.45,2.02-2.94,2.89-3.32.3-.12.7-.02,1.28.16Z"/>
      <path d="M469.38,159.41c.45-.29,1.02-.3,1.52.32,1.21.07,1.3.21,1.11,1.87-.27,2.3-2.5,10.06-6.1,10.2-.52.02-1.36-.09-1.27-.3-1.62-.39-2.76-.84-2.69-2.76.12-3.8,2.66-7.72,3.71-8.71.3-.27.55-.41.82-.41.55,0,.87.27,1.75.86.41-.45.8-.8,1.16-1.07ZM466.65,160.62c-.96.71-3.69,4.92-3.53,8.15.05,1.23.43,1.64,1.27,2.07.36.18.71.25,1.05.21,2.46-.27,5.1-6.01,5.41-10.19.05-.77-.27-.87-1.14-.27s-1.8,1.37-3.03,2.55c-.39.36-.68.21-.38-.27.57-.87,1.02-1.46,1.55-2.05-.43-.32-.86-.46-1.2-.21Z"/>
      <path d="M473.85,170.65c.36-.91.45-1,.48-1.36.02-.37-.04-.55.16-.61.16-.04.23.14.5.55.54-1.14,1.07-2.55,1.48-3.69-.68-1.03-.68-1.07.36-1.16.23-.68.59-1.91.8-2.71-1.52.57-2.89,1.12-3.82,2.3-.5.64-.18,1.39.07,2.1.09.3-.25.39-.45.11-.3-.46-.59-1-.8-1.53-.2-.54-.48-.89.41-1.71,1.37-1.27,3.25-2.07,4.78-2.53.14-.25.11-1.05.34-1.02.11.02.27.21.54.71,1.2-.29,1.96-.48,2.5-.45.61.04.91.36,1.21,1.11.62.45.93.71.93,1.52,0,1.25-2.07,3.94-3.26,3.94-.75,0-1.11-.38-1.52-.64-.3-.2.02-.48.27-.39.5.18,1.21.43,2.55-1.27,1.43-1.84,1.3-3.09-.41-3.09-.84,0-1.8.25-2.57.55-.23,1-.77,2.8-.98,3.42,2.14,3.21,5.9,7.51,7.1,7.6.5.04.59-.16.73-.27.3-.25.61-.12.37.3-.45.77-.87,1.36-1.39,1.39-.25.02-.55-.11-.91-.43-2.68-2.3-5.48-5.96-6.33-7.15-.43,1.5-1.62,4.42-2.03,5.24-.21.41-.37.48-.64.27-.52-.37-.71-.52-.46-1.12Z"/>
      <path d="M484.93,169.13c-.54-.93-.73-1.14-.11-1.68.62-.55.89-.34.73.21.62,1.69,3.05,3.42,4.66,3.41.87,0,1.07-.61,1.07-1.46,0-1.68-2.5-4.64-2.5-6.64,0-.96.52-1.52,1.52-2.27.38-.29.75.02.38.38-.27.25-.68.66-.68,1.55,0,1.89,2.51,4.98,2.51,6.28s-1.02,2.18-1.61,2.53c-.16.3-.46.73-1.2.71-1.91-.02-4.21-2.05-4.78-3.03ZM493.44,159.48c.62-.21.62-.12.96.45.7.21.93.25.71,1s-.61,1.57-.93,2.07c-.36.52-.54.52-1.28.02-.3-.2-.18-.41.12-.5.32-.09.78-1.39.78-1.87,0-.32-.04-.46-.61-.37-.41.07-.78.21-1.46.46-.5.18-.7-.2-.23-.43.8-.39,1.3-.59,1.93-.82Z"/>
    </g>
  </g>
</svg>